# xmcd
#
# Track frame offsets: 
#        150
#        11315
#        25300
#        38737
#        52955
#        65697
#        78807
#        92975
#        106390
#        119020
#        133252
#        146737
#        158830
#        169515
#        184130
#        197180
#        208797
#        220297
#        232735
#        245557
#        259112
#        270210
#        281832
#        295752
#        320060
#        332457
#        344250
#
# Disc length: 4750 seconds
#
# Revision: 6
# Processed by: cddbd v1.5.2PL0 Copyright (c) Steve Scherf et al.
# Submitted via: ExactAudioCopyFreeDBPlugin 1.0
#
DISCID=92128c1b
DTITLE=Various Artist - Blowing the Fuse:  459 R&B Classics, 1945-196
DTITLE=0 [Bear Family]
DYEAR=1949
DGENRE=Rhythm and Blues
TTITLE0=Sister Rosetta Tharpe - Up Above My Head
TTITLE1=Pee Wee Crayton - Texas Hop
TTITLE2=Red Miller - Bewildered
TTITLE3=John Lee Hooker - Boogie Chillen
TTITLE4=Big Jay McNeely - Deacon's Hop
TTITLE5=Jimmy Witherspoon - Ain't Nobody's Business (Part 1)
TTITLE6=Paul Williams - The Hucklebuck
TTITLE7=Julia Lee - The Spinach Song (I Didn't Like it the First Time)
TTITLE8=Roy Brown - Rockin' at Midnight
TTITLE9=The Orioles - Tell Me So
TTITLE10=T-Bone Walker - T-Bone Shuffle
TTITLE11=Todd Rhodes - Pot Likker
TTITLE12=Charles Brown Trio - Trouble Blues
TTITLE13=Stick McGee - Drinkin' Wine, Spo-Dee-O-Dee
TTITLE14=T.J. Fowler - T.J. Boogie
TTITLE15=Ruth Brown - So Long
TTITLE16=Wynomie Harris - All She Wants to Do is Rock
TTITLE17=Amos Milburn - Roomin' House Boogie
TTITLE18=Dinah Washington - Baby Get Lost
TTITLE19=Bull Mose Jackson - Why Don't You Haul Off and Love Me
TTITLE20=Sugar Chile Robinson - Numbers Boogie
TTITLE21=Jimmy Preston - Rock the Joint
TTITLE22=Billy Wright - Blues for My Baby
TTITLE23=Louis Jordan - Saturday Night Fish Fry (Parts 1 and 2)
TTITLE24=Annie Laurie - Cuttin' Out
TTITLE25=Larry Darnell - For You My Love
TTITLE26=Clarence Brown - Mary is Fine
EXTD=
EXTT0=
EXTT1=
EXTT2=
EXTT3=
EXTT4=
EXTT5=
EXTT6=
EXTT7=
EXTT8=
EXTT9=
EXTT10=
EXTT11=
EXTT12=
EXTT13=
EXTT14=
EXTT15=
EXTT16=
EXTT17=
EXTT18=
EXTT19=
EXTT20=
EXTT21=
EXTT22=
EXTT23=
EXTT24=
EXTT25=
EXTT26=
PLAYORDER=
